<mxfile host="app.diagrams.net" modified="2024-04-11T05:26:51.976Z" agent="Mozilla/5.0 (Windows NT 10.0; Win64; x64) AppleWebKit/537.36 (KHTML, like Gecko) Chrome/123.0.0.0 Safari/537.36" version="24.2.3" etag="S23m8JCnrXL9yUj9_MLA" type="github">
  <diagram name="第 1 页" id="heYH8-rt7a_T6tidVYm5">
    <mxGraphModel>
      <root>
        <mxCell id="0" />
        <mxCell id="1" parent="0" />
      </root>
    </mxGraphModel>
  </diagram>
</mxfile>
